REM DIRINDEX 1\2,1\3
REM DIRNAME cjc039,folder01,folder02
TITLE ""
FILE "2681-2700.mp3" MP3
  TRACK 01 AUDIO
    TITLE "0:"
    INDEX 01 00:00:00
  TRACK 02 AUDIO
    TITLE "2:cjc039_4361"
    INDEX 01 00:00:25
  TRACK 03 AUDIO
    TITLE "0:"
    INDEX 01 00:01:44
  TRACK 04 AUDIO
    TITLE "3:cjc039_4362"
    INDEX 01 00:02:20
  TRACK 05 AUDIO
    TITLE "0:"
    INDEX 01 00:05:46
  TRACK 06 AUDIO
    TITLE "2:cjc039_4363"
    INDEX 01 00:07:15
  TRACK 07 AUDIO
    TITLE "0:"
    INDEX 01 00:08:58
  TRACK 08 AUDIO
    TITLE "3:cjc039_4364"
    INDEX 01 00:09:32
  TRACK 09 AUDIO
    TITLE "0:"
    INDEX 01 00:13:67
  TRACK 10 AUDIO
    TITLE "2:cjc039_4365"
    INDEX 01 00:15:40
  TRACK 11 AUDIO
    TITLE "0:"
    INDEX 01 00:16:63
  TRACK 12 AUDIO
    TITLE "3:cjc039_4366"
    INDEX 01 00:17:43
  TRACK 13 AUDIO
    TITLE "0:"
    INDEX 01 00:22:25
  TRACK 14 AUDIO
    TITLE "2:cjc039_4367"
    INDEX 01 00:23:71
  TRACK 15 AUDIO
    TITLE "0:"
    INDEX 01 00:25:05
  TRACK 16 AUDIO
    TITLE "3:cjc039_4368"
    INDEX 01 00:25:52
  TRACK 17 AUDIO
    TITLE "0:"
    INDEX 01 00:28:62
  TRACK 18 AUDIO
    TITLE "2:cjc039_4369"
    INDEX 01 00:30:34
  TRACK 19 AUDIO
    TITLE "0:"
    INDEX 01 00:31:41
  TRACK 20 AUDIO
    TITLE "3:cjc039_4370"
    INDEX 01 00:32:19
  TRACK 21 AUDIO
    TITLE "0:"
    INDEX 01 00:35:68
  TRACK 22 AUDIO
    TITLE "2:cjc039_4371"
    INDEX 01 00:37:42
  TRACK 23 AUDIO
    TITLE "0:"
    INDEX 01 00:38:57
  TRACK 24 AUDIO
    TITLE "3:cjc039_4372"
    INDEX 01 00:39:37
  TRACK 25 AUDIO
    TITLE "0:"
    INDEX 01 00:43:21
  TRACK 26 AUDIO
    TITLE "2:cjc039_4373"
    INDEX 01 00:44:71
  TRACK 27 AUDIO
    TITLE "0:"
    INDEX 01 00:46:17
  TRACK 28 AUDIO
    TITLE "3:cjc039_4374"
    INDEX 01 00:46:72
  TRACK 29 AUDIO
    TITLE "0:"
    INDEX 01 00:50:72
  TRACK 30 AUDIO
    TITLE "2:cjc039_4375"
    INDEX 01 00:52:49
  TRACK 31 AUDIO
    TITLE "0:"
    INDEX 01 00:53:57
  TRACK 32 AUDIO
    TITLE "3:cjc039_4376"
    INDEX 01 00:54:25
  TRACK 33 AUDIO
    TITLE "0:"
    INDEX 01 00:58:30
  TRACK 34 AUDIO
    TITLE "2:cjc039_4377"
    INDEX 01 01:00:10
  TRACK 35 AUDIO
    TITLE "0:"
    INDEX 01 01:01:25
  TRACK 36 AUDIO
    TITLE "3:cjc039_4378"
    INDEX 01 01:02:06
  TRACK 37 AUDIO
    TITLE "0:"
    INDEX 01 01:05:38
  TRACK 38 AUDIO
    TITLE "2:cjc039_4379"
    INDEX 01 01:07:15
  TRACK 39 AUDIO
    TITLE "0:"
    INDEX 01 01:08:38
  TRACK 40 AUDIO
    TITLE "3:cjc039_4380"
    INDEX 01 01:09:18
  TRACK 41 AUDIO
    TITLE "0:"
    INDEX 01 01:13:63
  TRACK 42 AUDIO
    TITLE "2:cjc039_4381"
    INDEX 01 01:15:39
  TRACK 43 AUDIO
    TITLE "0:"
    INDEX 01 01:16:48
  TRACK 44 AUDIO
    TITLE "3:cjc039_4382"
    INDEX 01 01:17:28
  TRACK 45 AUDIO
    TITLE "0:"
    INDEX 01 01:21:20
  TRACK 46 AUDIO
    TITLE "2:cjc039_4383"
    INDEX 01 01:22:74
  TRACK 47 AUDIO
    TITLE "0:"
    INDEX 01 01:24:20
  TRACK 48 AUDIO
    TITLE "3:cjc039_4384"
    INDEX 01 01:25:00
  TRACK 49 AUDIO
    TITLE "0:"
    INDEX 01 01:29:35
  TRACK 50 AUDIO
    TITLE "2:cjc039_4385"
    INDEX 01 01:31:14
  TRACK 51 AUDIO
    TITLE "0:"
    INDEX 01 01:32:23
  TRACK 52 AUDIO
    TITLE "3:cjc039_4386"
    INDEX 01 01:33:05
  TRACK 53 AUDIO
    TITLE "0:"
    INDEX 01 01:36:37
  TRACK 54 AUDIO
    TITLE "2:cjc039_4387"
    INDEX 01 01:38:14
  TRACK 55 AUDIO
    TITLE "0:"
    INDEX 01 01:39:53
  TRACK 56 AUDIO
    TITLE "3:cjc039_4388"
    INDEX 01 01:40:31
  TRACK 57 AUDIO
    TITLE "0:"
    INDEX 01 01:45:08
  TRACK 58 AUDIO
    TITLE "2:cjc039_4389"
    INDEX 01 01:46:51
  TRACK 59 AUDIO
    TITLE "0:"
    INDEX 01 01:47:72
  TRACK 60 AUDIO
    TITLE "3:cjc039_4390"
    INDEX 01 01:48:50
  TRACK 61 AUDIO
    TITLE "0:"
    INDEX 01 01:52:36
  TRACK 62 AUDIO
    TITLE "2:cjc039_4391"
    INDEX 01 01:54:13
  TRACK 63 AUDIO
    TITLE "0:"
    INDEX 01 01:55:40
  TRACK 64 AUDIO
    TITLE "3:cjc039_4392"
    INDEX 01 01:56:18
  TRACK 65 AUDIO
    TITLE "0:"
    INDEX 01 02:00:61
  TRACK 66 AUDIO
    TITLE "2:cjc039_4393"
    INDEX 01 02:02:32
  TRACK 67 AUDIO
    TITLE "0:"
    INDEX 01 02:03:43
  TRACK 68 AUDIO
    TITLE "3:cjc039_4394"
    INDEX 01 02:04:27
  TRACK 69 AUDIO
    TITLE "0:"
    INDEX 01 02:07:18
  TRACK 70 AUDIO
    TITLE "2:cjc039_4395"
    INDEX 01 02:08:72
  TRACK 71 AUDIO
    TITLE "0:"
    INDEX 01 02:10:30
  TRACK 72 AUDIO
    TITLE "3:cjc039_4396"
    INDEX 01 02:11:10
  TRACK 73 AUDIO
    TITLE "0:"
    INDEX 01 02:15:66
  TRACK 74 AUDIO
    TITLE "2:cjc039_4397"
    INDEX 01 02:17:44
  TRACK 75 AUDIO
    TITLE "0:"
    INDEX 01 02:18:65
  TRACK 76 AUDIO
    TITLE "3:cjc039_4398"
    INDEX 01 02:19:40
  TRACK 77 AUDIO
    TITLE "0:"
    INDEX 01 02:23:50
  TRACK 78 AUDIO
    TITLE "2:cjc039_4399"
    INDEX 01 02:25:29
  TRACK 79 AUDIO
    TITLE "0:"
    INDEX 01 02:26:68
  TRACK 80 AUDIO
    TITLE "3:cjc039_4400"
    INDEX 01 02:27:44
  TRACK 81 AUDIO
    TITLE "0:"
    INDEX 01 02:31:38
